<svg xmlns="http://www.w3.org/2000/svg" enable-background="new 0 0 67 67" viewBox="0 0 67 67"><path d="M62.9 26.5c-.1-.3-.3-.5-.6-.6l-8.6-3.2c0 0 0 0 0 0L50 21.2c-.5-.2-1.1.1-1.3.6-.2.5.1 1.1.6 1.3l2.1.8-6.8 5.6-1.5-.6c-.5-.2-1.1.1-1.3.6-.1.1-.1.2-.1.4 0 .4.2.8.6.9l1.2.5-3.1 11.2L39.2 42c-.5-.2-1.1.1-1.3.6 0 .1-.1.2-.1.4 0 .4.3.8.6.9l1.9.7 2.9 9.4c-.3.1-.6.3-.7.6 0 .1-.1.2-.1.4 0 .4.3.8.6.9 13.5 5 8.8 3.3 9.8 3.7.1 0 .2.1.4.1.2 0 .5-.1.6-.2l8.6-7c.2-.1.3-.3.3-.5l3.6-13.2c0-.2 0-.4 0-.6L62.9 26.5zM61 51l-.2.1c.2-.5-.1-1.1-.6-1.3l-3.8-1.4c-.5-.2-1.1.1-1.3.6 0 .1-.1.2-.1.3 0 .4.3.8.7.9l3.7 1.4c.1 0 .2.1.4.1 0 0 .1 0 .1 0l-7 5.7-7.6-2.8-2.8-9.2 1.8.7c.6.2 1.1-.1 1.3-.6.2-.5-.1-1.1-.6-1.3l-2.9-1.1L45.4 32l2.7 1c.4.2 1.1 0 1.3-.6.2-.5-.1-1.1-.6-1.3l-2.1-.8 6.8-5.6 7.6 2.8 2.8 9.2c0 0-.1-.1-.1-.1l-3.7-1.4c-.5-.2-1.1.1-1.3.6 0 .1-.1.2-.1.3 0 .4.3.8.7 1l3.7 1.4c.5.2 1-.1 1.2-.5l.1.3L61 51zM25.1 26c-.5-.2-1.1.2-1.2.7l-1.1 3.9c-.1.5.2 1.1.7 1.2.5.2 1.1-.1 1.2-.7l1.1-3.9C25.9 26.6 25.6 26.1 25.1 26zM7.3 40c-.5-.2-1.1.1-1.3.6-.2.5.1 1.1.6 1.3l3.8 1.4c.5.2 1.1-.1 1.3-.6.2-.4 0-1.1-.6-1.3L7.3 40zM18.2 39.6c-.3-.4-1-.5-1.4-.1-3.1 2.6-3.2 2.4-3.4 2.9-.3.1-.6.3-.7.6-.2.5.1 1.1.6 1.3l3.7 1.4c.6.2 1.1-.1 1.3-.6.2-.5-.1-1.1-.6-1.3l-2.1-.8 2.5-2C18.5 40.7 18.5 40.1 18.2 39.6z"/><path d="M4.1 40.5c.2.5.7.8 1.2.7C5.8 41 6.1 40.4 6 39.9l-2.9-9.6L4.9 31c.5.2 1.1 0 1.3-.6.2-.5-.1-1.1-.6-1.3L2.7 28l3.2-11.8 3 1.2c.6.2 1.1-.1 1.3-.6.2-.5 0-1.1-.6-1.3l-2.1-.9 6.4-5.2 7.6 2.8 1 3.4c.1.5.7.8 1.3.7.5-.1.8-.7.7-1.2L23.8 13c.3-.1.6-.3.7-.6.2-.5 0-1.1-.6-1.3C12.8 7 14.2 7.5 14.1 7.4c-.3-.1-.7-.1-1 .2l-8.6 7c-.2.1-.3.3-.3.5C.3 29.3.5 28.3.5 28.7.5 28.7.3 28 4.1 40.5zM56.3 33.9l-3.7-1.4c-.5-.2-1.1.1-1.3.6-.2.5.1 1.1.6 1.3l3.7 1.4c.5.2 1.1-.1 1.3-.6C57.1 34.7 56.9 34.1 56.3 33.9zM52.7 47.1L49 45.7c-.5-.2-1.1.1-1.3.6 0 .1-.1.2-.1.3 0 .4.3.8.6.9L52 49c.5.2 1.1 0 1.3-.6C53.5 47.9 53.3 47.3 52.7 47.1zM35.6 53l3.7 1.4c.6.2 1.1-.1 1.3-.6.2-.5-.1-1.1-.6-1.3l-3.7-1.4c-.5-.2-1.1.1-1.3.6 0 .1-.1.2-.1.4C35 52.5 35.2 52.8 35.6 53zM28.2 50.1l3.7 1.5c.6.2 1.1-.1 1.3-.6.2-.5-.1-1.1-.6-1.3l-3.7-1.4c-.5-.2-1.1.1-1.3.6 0 .1-.1.2-.1.4C27.5 49.6 27.8 50 28.2 50.1zM21.4 45.3c-.5-.2-1.1.1-1.3.6 0 .1-.1.2-.1.4 0 .4.3.8.6.9l3.7 1.5c.6.2 1.1-.1 1.3-.6.2-.5-.1-1.1-.6-1.3L21.4 45.3z"/><path d="M13.6 33.3c.2-.5-.1-1.1-.6-1.3l-3.7-1.4c-.5-.2-1.1.1-1.3.6C8 31.2 8 31.3 8 31.5c0 .4.3.8.6.9l3.7 1.4C12.9 34 13.4 33.8 13.6 33.3zM36 41.9c.2-.5-.1-1.1-.6-1.3l-3.7-1.4c-.5-.2-1.1.1-1.3.6-.1.1-.1.2-.1.4 0 .4.3.8.6.9l3.7 1.4C35.3 42.6 35.9 42.3 36 41.9zM28.6 39c.2-.5 0-1.1-.6-1.3l-3.7-1.4c-.3-.1-.7 0-1 .2l.4-1.6c.1-.3 0-.5-.1-.8-.1-.2-.4-.4-.6-.5 0 0-.1 0-.1 0-.5-.1-1 .3-1.1.7l-.4 1.4L21.1 36c.1-.5-.1-.9-.6-1.1l-3.7-1.4c-.5-.2-1.1.1-1.3.6 0 .1-.1.2-.1.4 0 .4.3.8.6.9l3.7 1.4c.1 0 .2.1.3.1L19.9 37c-.4.4-.5 1-.1 1.4.4.5 1 .5 1.4.1l1.7-1.4c0 0 0 0 .1-.1 0 .1 0 .1 0 .2 0 .4.3.8.6.9l3.7 1.4C27.8 39.8 28.4 39.5 28.6 39zM27 23.5c-.1.1-.1.2-.1.4 0 .4.2.8.6.9l3.7 1.5c.6.2 1.1-.1 1.3-.6.2-.5 0-1.1-.6-1.3L28.3 23C27.8 22.8 27.2 23 27 23.5zM16.4 20.4c.5.2 1.1 0 1.3-.6.2-.5 0-1.1-.6-1.3L13.4 17c-.5-.2-1.1.1-1.3.6C12.1 17.7 12 17.8 12 18c0 .4.3.8.6.9L16.4 20.4zM40 28.7c.2-.5 0-1.1-.6-1.3L35.7 26c-.5-.2-1.1.1-1.3.6 0 .1-.1.2-.1.4 0 .4.2.8.6.9l3.7 1.5C39.3 29.5 39.8 29.2 40 28.7zM19.5 20.6c0 .1-.1.2-.1.4 0 .4.3.8.6.9l3.7 1.5c.4.1.7.1 1-.2l0 .2c.2.5.7.8 1.3.7.3-.1.5-.3.6-.5.1-.2.1-.5.1-.8l-1.2-3.8c-.2-.5-.7-.8-1.3-.7-.4.1-.7.5-.7 1 0 .1 0 .2 0 .3l.6 1.9L20.8 20C20.3 19.8 19.7 20.1 19.5 20.6zM38.1 18.8c.6.2 1.1-.1 1.3-.6.2-.5 0-1.1-.6-1.3l-3.7-1.4c-.5-.2-1.1.1-1.3.6-.2.5.1 1.1.6 1.3L38.1 18.8zM31.4 14l-3.7-1.4c-.5-.2-1.1.1-1.3.6-.2.5.1 1.1.6 1.3l3.7 1.5c.6.2 1.1-.1 1.3-.6C32.1 14.8 31.9 14.2 31.4 14zM42.6 18.3c-.5-.2-1.1.1-1.3.6-.2.5.1 1.1.6 1.3l3.7 1.4c.4.2 1.1 0 1.3-.6.2-.5 0-1.1-.6-1.3L42.6 18.3z"/></svg>