<svg xmlns="http://www.w3.org/2000/svg" enable-background="new 0 0 64 64" viewBox="0 0 64 64"><path d="M23,23.288v8.411l7.5,4.329l7.5-4.329v-8.411l-7.5-4.33L23,23.288z M36.428,23.536L30.5,26.958l-5.928-3.422l5.928-3.424   L36.428,23.536z M24,24.36l6,3.464v6.762l-6-3.464V24.36z M31,34.585v-6.762l6-3.464v6.761L31,34.585z"/><rect width="3" height="1" x="17" y="12"/><rect width="3" height="1" x="17" y="16"/><rect width="1" height="1" x="17" y="18"/><rect width="1" height="1" x="17" y="20"/><rect width="1" height="1" x="17" y="22"/><rect width="1" height="1" x="17" y="24"/><rect width="1" height="1" x="17" y="26"/><rect width="1" height="1" x="19" y="18"/><rect width="1" height="1" x="19" y="20"/><rect width="1" height="1" x="19" y="22"/><rect width="1" height="1" x="19" y="24"/><rect width="1" height="1" x="19" y="26"/><rect width="1" height="1" x="45" y="12"/><rect width="2" height="1" x="43" y="18"/><rect width="6" height="1" x="41" y="28"/><rect width="6" height="1" x="41" y="26"/><rect width="6" height="1" x="41" y="30"/><rect width="1" height="1" x="43" y="12"/><path d="M55,47V19h-6v-9H15v9H9v28H5v4.707L7.293,54h49.414L59,51.707V47H55z M49,42V23h2v21H13V23h2v19H49z M16,15h32v26H16V15z    M48,11v1h-1v1h1v1H16v-3H48z M10,20h5v2h-3v23h40V22h-3v-2h5v27H37H27H10V20z M28,48h8v1h-8V48z M58,51.293L56.293,53H7.707   L6,51.293V48h3h18v2h10v-2h18h3V51.293z"/><path d="M41,25h6v-9h-6V25z M42,17h4v7h-4V17z"/></svg>