<svg xmlns="http://www.w3.org/2000/svg" enable-background="new 0 0 64 64" viewBox="0 0 64 64"><path d="M46,0H2C0.897,0,0,0.897,0,2v60c0,1.103,0.897,2,2,2h44c1.103,0,2-0.897,2-2V2C48,0.897,47.103,0,46,0z M31,8H17V2h14V8z
		 M2,62V2h13v6c0,1.103,0.897,2,2,2h14c1.103,0,2-0.897,2-2h9v42h-7c-0.552,0-1,0.447-1,1v7H6V8h6c0.552,0,1-0.447,1-1s-0.448-1-1-1
		H5C4.448,6,4,6.447,4,7v52c0,0.553,0.448,1,1,1h30c0.132,0,0.262-0.027,0.383-0.077c0.122-0.051,0.232-0.124,0.324-0.216
		l7.998-7.998c0.001-0.001,0.002-0.003,0.003-0.004c0.083-0.083,0.143-0.181,0.191-0.283c0.014-0.031,0.022-0.062,0.034-0.095
		c0.03-0.086,0.048-0.173,0.053-0.264C43.989,51.04,44,51.022,44,51V7c0-0.553-0.448-1-1-1H33V2h13l0.001,60H2z M40.586,52
		L36,56.586V52H40.586z"/><path d="M10 23v6c0 .13.027.26.077.382.101.245.296.44.541.541C10.74 29.973 10.87 30 11 30h6c.552 0 1-.447 1-1v-6c0-.13-.027-.26-.077-.382-.101-.245-.296-.44-.541-.541C17.26 22.026 17.13 22 17 22h-6C10.448 22 10 22.447 10 23zM13.414 28L16 25.414V28H13.414zM14.586 24L12 26.586V24H14.586zM17 42h-6c-.552 0-1 .447-1 1v6c0 .553.448 1 1 1h6c.552 0 1-.447 1-1v-6C18 42.447 17.552 42 17 42zM16 48h-4v-4h4V48zM21 25h6c.552 0 1-.447 1-1s-.448-1-1-1h-6c-.552 0-1 .447-1 1S20.448 25 21 25zM20 28c0 .553.448 1 1 1h15c.552 0 1-.447 1-1s-.448-1-1-1H21C20.448 27 20 27.447 20 28zM21 35h6c.552 0 1-.447 1-1s-.448-1-1-1h-6c-.552 0-1 .447-1 1S20.448 35 21 35zM36 37H21c-.552 0-1 .447-1 1s.448 1 1 1h15c.552 0 1-.447 1-1S36.552 37 36 37zM21 45h6c.552 0 1-.447 1-1s-.448-1-1-1h-6c-.552 0-1 .447-1 1S20.448 45 21 45zM36 47H21c-.552 0-1 .447-1 1s.448 1 1 1h15c.552 0 1-.447 1-1S36.552 47 36 47zM18 18h12c.552 0 1-.447 1-1s-.448-1-1-1H18c-.552 0-1 .447-1 1S17.448 18 18 18zM17.382 32.077C17.26 32.026 17.13 32 17 32h-6c-.552 0-1 .447-1 1v6c0 .13.027.26.077.382.101.245.296.44.541.541C10.74 39.973 10.87 40 11 40h6c.552 0 1-.447 1-1v-6c0-.13-.027-.26-.077-.382C17.822 32.373 17.627 32.178 17.382 32.077zM14.586 34L12 36.586V34H14.586zM13.414 38L16 35.414V38H13.414zM61.999 27.952c-.026-.526-.455-.937-.979-.948V24 12c0-.553-.448-1-1-1h-.027l.986-4.799c.051-.25.005-.51-.128-.727l-2.469-4C58.201 1.182 57.881 1.002 57.536 1c-.001 0-.003 0-.005 0-.343 0-.662.176-.845.466l-2.531 4c-.14.221-.188.489-.132.745L55.056 11h-.015c-.551 0-.998.445-1 .997l-.038 11.92C54.001 23.944 54 23.972 54 24c0 .025.001.051.003.076L54 24.985c-.002.552.444 1.001.997 1.003.001 0 .002 0 .003 0 .548 0 .994-.441 1-.988h3.021v2H54c-.534 0-.974.42-.999.954l-1.45 31.281c0 2.627 2.124 4.765 4.735 4.765h2.49c2.611 0 4.735-2.138 4.734-4.813L61.999 27.952zM56.064 6.189l1.457-2.303 1.42 2.301L57.952 11h-.85L56.064 6.189zM56.038 13h2.982v10h-3.014L56.038 13zM54.955 29h5.093l1.209 24.979h-7.46L54.955 29zM58.775 62h-2.49c-1.508 0-2.735-1.24-2.736-2.719l.153-3.302h7.65l.158 3.256C61.51 60.76 60.283 62 58.775 62z"/></svg>