<svg xmlns="http://www.w3.org/2000/svg" viewBox="0 0 48 48"><path d="M26 39H22a1 1 0 0 0-1 1v1a3 3 0 0 0 6 0V40A1 1 0 0 0 26 39zm-2 3a1 1 0 0 1-1-1h2A1 1 0 0 1 24 42zM24.53 4A13 13 0 0 0 16.22 27.4 4.24 4.24 0 0 1 18 30.77V31a1 1 0 0 0 1 1H29a1 1 0 0 0 1-1v-.23a4.14 4.14 0 0 1 1.74-3.34A13 13 0 0 0 37 17v-.25A13.17 13.17 0 0 0 24.53 4zm6 21.82A6.14 6.14 0 0 0 28.05 30H20a6.28 6.28 0 0 0-2.53-4.2A11 11 0 0 1 24.45 6 11.14 11.14 0 0 1 35 16.79 11.06 11.06 0 0 1 30.55 25.83z"/><path d="M26,32H22a1,1,0,0,1-1-1V20a1,1,0,0,1,1-1h4a1,1,0,0,1,1,1V31A1,1,0,0,1,26,32Zm-3-2h2V21H23Z"/><path d="M28 21H26a1 1 0 0 1-1-1V18a3 3 0 1 1 3 3zm-1-2h1a1 1 0 1 0-1-1zM22 21H20a3 3 0 1 1 3-3v2A1 1 0 0 1 22 21zm-2-4a1 1 0 0 0 0 2h1V18A1 1 0 0 0 20 17zM29 33H19a1 1 0 0 0-1 1v3a1 1 0 0 0 1 1H29a1 1 0 0 0 1-1V34A1 1 0 0 0 29 33zm-9 3V35h8v1z"/><path d="M29 36H19a1 1 0 0 0-1 1 4 4 0 0 0 4 4h4a4 4 0 0 0 4-4A1 1 0 0 0 29 36zm-3 3H22a2 2 0 0 1-1.73-1h7.46A2 2 0 0 1 26 39zM29 30H19a1 1 0 0 0-1 1v3a1 1 0 0 0 1 1H29a1 1 0 0 0 1-1V31A1 1 0 0 0 29 30zm-9 3V32h8v1z"/></svg>