<svg xmlns="http://www.w3.org/2000/svg" enable-background="new 0 0 80 80" viewBox="0 0 80 80"><path d="M72,7.5H8C7.7236328,7.5,7.5,7.7236328,7.5,8v3.5302734c0,0.2763672,0.2236328,0.5,0.5,0.5s0.5-0.2236328,0.5-0.5V8.5h63v63
	h-8.2177734l-4.8496094-6.5664062c-0.0947266-0.1279297-0.2441406-0.203125-0.4023438-0.203125H21.9697266
	c-0.1582031,0-0.3076172,0.0751953-0.4023438,0.203125L16.7177734,71.5H8.5V15.5302734c0-0.2763672-0.2236328-0.5-0.5-0.5
	s-0.5,0.2236328-0.5,0.5V72c0,0.2763672,0.2236328,0.5,0.5,0.5h8.9697266c0.1582031,0,0.3076172-0.0751953,0.4023438-0.203125
	l4.8496094-6.5664062h35.5566406l4.8496094,6.5664062C62.7226562,72.4248047,62.8720703,72.5,63.0302734,72.5H72
	c0.2763672,0,0.5-0.2236328,0.5-0.5V8C72.5,7.7236328,72.2763672,7.5,72,7.5z"/><path d="M15.4697266,27.3203125c-0.2763672,0-0.5,0.2236328-0.5,0.5v26.6201172c0,2.4814453,2.0185547,4.5,4.5,4.5h41.0605469
	c2.4814453,0,4.5-2.0185547,4.5-4.5V20.2597656c0-2.4814453-2.0185547-4.5-4.5-4.5H19.4697266c-2.4814453,0-4.5,2.0185547-4.5,4.5
	v3.5605469c0,0.2763672,0.2236328,0.5,0.5,0.5h20.1347656v3.9550781c0,0.2763672,0.2236328,0.5,0.5,0.5h1.125v2.3955078
	c0,1.3215942,0.9464111,3.2704468,2.2705078,3.6821899v5.5473022H27.6054688c-1.5166016,0-2.75,1.2333984-2.75,2.75
	s1.2333984,2.75,2.75,2.75h24.7900391c0.9648438,0,1.75,0.7851562,1.75,1.75s-0.7851562,1.75-1.75,1.75H27.6054688
	c-1.5166016,0-2.75,1.2333984-2.75,2.75s1.2333984,2.75,2.75,2.75h27.0400391c0.2763672,0,0.5-0.2236328,0.5-0.5
	s-0.2236328-0.5-0.5-0.5H27.6054688c-0.9648438,0-1.75-0.7851562-1.75-1.75s0.7851562-1.75,1.75-1.75h24.7900391
	c1.5166016,0,2.75-1.2333984,2.75-2.75s-1.2333984-2.75-2.75-2.75H27.6054688c-0.9648438,0-1.75-0.7851562-1.75-1.75
	s0.7851562-1.75,1.75-1.75H40c0.2763672,0,0.5-0.2236328,0.5-0.5v-6.0473022
	c1.3240967-0.4117432,2.2705078-2.3605957,2.2705078-3.6821899v-2.3955078h1.125c0.2763672,0,0.5-0.2236328,0.5-0.5v-3.9550781
	h19.6347656v30.1201172c0,1.9296875-1.5703125,3.5-3.5,3.5H19.4697266c-1.9296875,0-3.5-1.5703125-3.5-3.5V27.8203125
	C15.9697266,27.5439453,15.7460938,27.3203125,15.4697266,27.3203125z M15.9697266,23.3203125v-3.0605469
	c0-1.9296875,1.5703125-3.5,3.5-3.5h20.0351562v3.2236328h-3.4003906c-0.2763672,0-0.5,0.2236328-0.5,0.5v2.8369141H15.9697266z
	 M41.7705078,31.1708984c0,1.1191406-0.9326172,2.7705078-1.7705078,2.7705078s-1.7705078-1.6513672-1.7705078-2.7705078v-2.3955078
	h3.5410156V31.1708984z M43.3955078,27.7753906h-1.125h-4.5410156h-1.125v-6.7919922h6.7910156V27.7753906z M44.3955078,23.3203125
	v-2.8369141c0-0.2763672-0.2236328-0.5-0.5-0.5h-3.390625v-3.2236328h20.0253906c1.9296875,0,3.5,1.5703125,3.5,3.5v3.0605469
	H44.3955078z"/></svg>